<svg width="96" height="90" viewBox="0 0 96 90" xmlns="http://www.w3.org/2000/svg" xmlns:xlink="http://www.w3.org/1999/xlink"><title>Region Skåne logotype</title><defs><path id="a" d="M15.95 20.992V.254H.336v20.738z"/><path id="c" d="M0 .164V4.98h3.52V.164H0z"/><path id="e" d="M0 89.707h95.826V0H0z"/></defs><g fill="none" fill-rule="evenodd"><path d="M42.25 25.742c1.694-.742 3.476-1.302 5.25-1.683L47.42 0c-6.135.087-11.86 1.885-16.732 4.95l10.598 21.243c.317-.152.632-.305.965-.45zM38.868 27.523L25.228 9.255c-4.33 4.23-7.51 9.658-9.016 15.762l18.184 7.054c.894-1.76 2.43-3.255 4.472-4.547M61.83 27.83c4.12 8.556-5.36 8.347-1.443 15.026 1.82 3.103 7.552 7.15 13.17 10.596 4.362-5.62 6.97-12.702 6.97-20.405 0-6.727-1.988-12.98-5.396-18.202L60.934 26.503c.347.403.66.835.896 1.326M58.85 24.85L70.643 9.36C66.322 5.1 60.844 2.043 54.726.72L50.21 23.626c3.29-.342 6.38.02 8.64 1.224" fill="#FFD403"/><path d="M45.375 63.003c-1.958 0-3.545-1.607-3.545-3.59 0-1.982 1.587-3.588 3.545-3.588 1.957 0 3.544 1.606 3.544 3.59 0 1.98-1.588 3.588-3.545 3.588m8.622-10.963c-6.595-6.053-14.633-1.67-18.755-9.81-1.464-2.89-1.952-5.375-1.655-7.537L15.253 32.41c-.003.212-.015.423-.015.637 0 18.257 14.616 33.058 32.645 33.058 4.996 0 9.728-1.14 13.962-3.173-2.168-3.934-4.926-8.21-7.848-10.892M15 74.078c-3.015-1.338-4.81-1.855-6.577-1.855-1.857 0-3.044.67-3.044 1.703 0 3.132 10.563 2.25 10.563 9.487 0 3.983-3.35 6.294-7.976 6.294-3.623 0-5.42-.942-7.49-2.006v-4.47c2.984 1.977 4.81 2.677 7.094 2.677 1.98 0 3.045-.7 3.045-1.916 0-3.405-10.563-2.158-10.563-9.608 0-3.588 3.105-5.96 7.915-5.96 2.313 0 4.414.487 7.032 1.612v4.044zM29.063 78.426l9.163 11.008h-6.484l-8.22-9.73v9.73h-5.175V68.696h5.175v9.396h.06l6.547-9.396h5.69M76.842 89.434H72.49l-9.144-13.288v13.288H58.17V68.696h4.75l8.747 12.68v-12.68h5.175" fill="#E6342F"/><g transform="translate(79.875 68.44)"><mask id="b" fill="#fff"><use xlink:href="#a"/></mask><path fill="#E6342F" mask="url(#b)" d="M15.95 20.992H.336V.254h15.403v3.802H5.51v4.348h9.77v3.8H5.51v4.987h10.44"/></g><g transform="translate(0 61.606)"><mask id="d" fill="#fff"><use xlink:href="#c"/></mask><path d="M1 2.14h.53c.277 0 .548-.14.548-.55 0-.36-.195-.543-.57-.543H1V2.14zM1.796.165c.824 0 1.313.664 1.313 1.384 0 .53-.23.925-.69 1.18.413.247.537.84 1.102 2.252h-1.1c-.43-1.03-.59-1.956-1.13-1.956H1V4.98H0V.164h1.795z" fill="#E6342F" mask="url(#d)"/></g><path fill="#E6342F" d="M7.018 66.586h-2.96V61.77h2.92v.883h-1.92v1.01h1.83v.882h-1.83v1.158h1.96M11.497 63.154c-.512-.296-1.007-.444-1.5-.444-1.09 0-1.472.804-1.472 1.518 0 .854.56 1.42 1.39 1.42.246 0 .37-.03.663-.17v-.566h-.582v-.882h1.583V66c-.3.374-1.042.65-1.69.65-1.4 0-2.396-1.024-2.396-2.465 0-1.47.99-2.478 2.42-2.478.6 0 1.183.162 1.583.395v1.052z"/><mask id="f" fill="#fff"><use xlink:href="#e"/></mask><path fill="#E6342F" mask="url(#f)" d="M12.525 66.586h1V61.77h-1M16.553 62.71c-.766 0-1.272.585-1.272 1.468s.507 1.47 1.273 1.47c.76 0 1.265-.587 1.265-1.47s-.506-1.47-1.265-1.47m0 3.942c-1.472 0-2.302-1.243-2.302-2.472 0-1.165.79-2.472 2.303-2.472 1.512 0 2.295 1.314 2.295 2.472 0 1.236-.853 2.472-2.295 2.472M23.554 66.586h-.842l-2.22-3.086v3.086h-1V61.77h.92l2.14 2.945V61.77h1.002M45.376 73.648l-3.045 8.06h6.396l-3.35-8.06zm12.15 15.785h-5.572l-1.706-4.106H40.96l-1.552 4.106h-5.48L42.3 68.69h6l9.226 20.743z"/></g></svg>